<?xml version="1.0" encoding="iso-8859-1"?>
<!-- Uploaded to: SVG Repo, www.svgrepo.com, Generator: SVG Repo Mixer Tools -->
<svg fill="#000000" height="800px" width="800px" version="1.1" id="Layer_1" xmlns="http://www.w3.org/2000/svg" xmlns:xlink="http://www.w3.org/1999/xlink" 
	 viewBox="0 0 512 512" xml:space="preserve">
<g>
	<g>
		<path d="M286.379,362.667h12.288c5.888,0,10.667-4.779,10.667-10.667c0-5.888-4.779-10.667-10.667-10.667h-15.851l-4.267-25.643
			C302.72,306.539,320,283.328,320,256c0-23.573-12.971-43.989-32-55.104V160c0-5.888-4.779-10.667-10.667-10.667h-10.667V10.667
			C266.667,4.779,261.888,0,256,0s-10.667,4.779-10.667,10.667v138.667h-10.667c-5.888,0-10.667,4.779-10.667,10.667v40.896
			c-19.029,11.093-32,31.509-32,55.104c0,27.328,17.301,50.539,41.451,59.691l-4.267,25.643h-15.851
			c-5.888,0-10.667,4.779-10.667,10.667c0,5.888,4.779,10.667,10.667,10.667h12.288l-22.827,136.917
			c-0.512,3.093,0.363,6.251,2.389,8.64s4.992,3.776,8.128,3.776h85.333c0.128-0.021,0.277,0,0.427,0
			c5.888,0,10.667-4.779,10.667-10.667c0-1.643-0.384-3.221-1.045-4.629L286.379,362.667z"/>
	</g>
</g>
</svg>